<?xml version="1.0" encoding="utf-8"?>
<svg contentScriptType="text/ecmascript" xmlns:xlink="http://www.w3.org/1999/xlink" zoomAndPan="magnify" contentStyleType="text/css" viewBox="13.5 24.0 847.0 731.5" xmlns:cacoo="http://cacoo.com/" preserveAspectRatio="xMidYMin meet" xmlns="http://www.w3.org/2000/svg" version="1.1"><defs><linearGradient xlink:actuate="onLoad" xlink:type="simple" id="id0" xlink:show="other" xmlns:xlink="http://www.w3.org/1999/xlink"><stop stop-opacity="1.0" stop-color="#ffffff" offset="0%"/><stop stop-opacity="1.0" stop-color="#cccccc" offset="100%"/></linearGradient><linearGradient xlink:actuate="onLoad" xlink:type="simple" id="id1" xlink:show="other" xmlns:xlink="http://www.w3.org/1999/xlink"><stop stop-opacity="1.0" stop-color="#ffffff" offset="0%"/><stop stop-opacity="1.0" stop-color="#cccccc" offset="100%"/></linearGradient><linearGradient xlink:actuate="onLoad" xlink:type="simple" id="id2" xlink:show="other" xmlns:xlink="http://www.w3.org/1999/xlink"><stop stop-opacity="1.0" stop-color="#ffffff" offset="0%"/><stop stop-opacity="1.0" stop-color="#cccccc" offset="100%"/></linearGradient><linearGradient xlink:actuate="onLoad" xlink:type="simple" id="id3" xlink:show="other" xmlns:xlink="http://www.w3.org/1999/xlink"><stop stop-opacity="1.0" stop-color="#ffffff" offset="0%"/><stop stop-opacity="1.0" stop-color="#cccccc" offset="100%"/></linearGradient><marker refX="14.0" refY="7.0" markerUnits="userSpaceOnUse" orient="auto" id="id23" markerHeight="14.0" viewBox="0 0 14.0 14.0" preserveAspectRatio="xMidYMid meet" markerWidth="14.0" overflow="visible"><path fill="none" d="M0 0 L14.0 7.0 L0 14.0" stroke-width="1.0" stroke-linejoin="round" stroke-linecap="round" stroke="#000000"/></marker><marker refX="14.0" refY="7.0" markerUnits="userSpaceOnUse" orient="auto" id="id24" markerHeight="14.0" viewBox="0 0 14.0 14.0" preserveAspectRatio="xMidYMid meet" markerWidth="14.0" overflow="visible"><path fill="none" d="M0 0 L14.0 7.0 L0 14.0" stroke-width="1.0" stroke-linejoin="round" stroke-linecap="round" stroke="#000000"/></marker><marker refX="14.0" refY="7.0" markerUnits="userSpaceOnUse" orient="auto" id="id25" markerHeight="14.0" viewBox="0 0 14.0 14.0" preserveAspectRatio="xMidYMid meet" markerWidth="14.0" overflow="visible"><path fill="none" d="M0 0 L14.0 7.0 L0 14.0" stroke-width="1.0" stroke-linejoin="round" stroke-linecap="round" stroke="#000000"/></marker><marker refX="14.0" refY="7.0" markerUnits="userSpaceOnUse" orient="auto" id="id34" markerHeight="14.0" viewBox="0 0 14.0 14.0" preserveAspectRatio="xMidYMid meet" markerWidth="14.0" overflow="visible"><path fill="none" d="M0 0 L14.0 7.0 L0 14.0" stroke-width="1.0" stroke-linejoin="round" stroke-linecap="round" stroke="#74c14a"/></marker><marker refX="0.0" refY="7.0" markerUnits="userSpaceOnUse" orient="auto" id="id35" markerHeight="14.0" viewBox="0 0 14.0 14.0" preserveAspectRatio="xMidYMid meet" markerWidth="14.0" overflow="visible"><path fill="none" d="M14.0 0 L0 7.0 L14.0 14.0" stroke-width="1.0" stroke-linejoin="round" stroke-linecap="round" stroke="#51b11d"/></marker><linearGradient xlink:actuate="onLoad" xlink:type="simple" id="id39" xlink:show="other" xmlns:xlink="http://www.w3.org/1999/xlink"><stop stop-opacity="1.0" stop-color="#ffffff" offset="0%"/><stop stop-opacity="1.0" stop-color="#cccccc" offset="100%"/></linearGradient><linearGradient xlink:actuate="onLoad" xlink:type="simple" id="id40" xlink:show="other" xmlns:xlink="http://www.w3.org/1999/xlink"><stop stop-opacity="1.0" stop-color="#ffffff" offset="0%"/><stop stop-opacity="1.0" stop-color="#cccccc" offset="100%"/></linearGradient><marker refX="14.0" refY="7.0" markerUnits="userSpaceOnUse" orient="auto" id="id45" markerHeight="14.0" viewBox="0 0 14.0 14.0" preserveAspectRatio="xMidYMid meet" markerWidth="14.0" overflow="visible"><path fill="none" d="M0 0 L14.0 7.0 L0 14.0" stroke-width="1.0" stroke-linejoin="round" stroke-linecap="round" stroke="#000000"/></marker><marker refX="14.0" refY="7.0" markerUnits="userSpaceOnUse" orient="auto" id="id46" markerHeight="14.0" viewBox="0 0 14.0 14.0" preserveAspectRatio="xMidYMid meet" markerWidth="14.0" overflow="visible"><path fill="none" d="M0 0 L14.0 7.0 L0 14.0" stroke-width="1.0" stroke-linejoin="round" stroke-linecap="round" stroke="#000000"/></marker><marker refX="0.0" refY="7.0" markerUnits="userSpaceOnUse" orient="auto" id="id48" markerHeight="14.0" viewBox="0 0 14.0 14.0" preserveAspectRatio="xMidYMid meet" markerWidth="14.0" overflow="visible"><path fill="none" d="M14.0 0 L0 7.0 L14.0 14.0" stroke-width="1.0" stroke-linejoin="round" stroke-linecap="round" stroke="#8856a1"/></marker><marker refX="14.0" refY="7.0" markerUnits="userSpaceOnUse" orient="auto" id="id49" markerHeight="14.0" viewBox="0 0 14.0 14.0" preserveAspectRatio="xMidYMid meet" markerWidth="14.0" overflow="visible"><path fill="none" d="M0 0 L14.0 7.0 L0 14.0" stroke-width="1.0" stroke-linejoin="round" stroke-linecap="round" stroke="#8856a1"/></marker><marker refX="14.0" refY="7.0" markerUnits="userSpaceOnUse" orient="auto" id="id51" markerHeight="14.0" viewBox="0 0 14.0 14.0" preserveAspectRatio="xMidYMid meet" markerWidth="14.0" overflow="visible"><path fill="none" d="M0 0 L14.0 7.0 L0 14.0" stroke-width="1.0" stroke-linejoin="round" stroke-linecap="round" stroke="#8856a1"/></marker></defs><g><g transform="translate(143.5114999999999 62.03499999999998)"><path fill="url(#id0)" d="M77.48850000000012 25.54781712210969 L54.056184780512964 0.0 L10.276020631145975 0.0 Q8.615920367632894 0.0 8.615920367632894 1.8147334225109883 L8.615920367632894 93.15026657748903 Q8.615920367632894 94.96500000000002 10.276020631145975 94.96500000000002 L75.82839973648704 94.96500000000002 Q77.48850000000012 94.96500000000002 77.48850000000012 93.15026657748903 L77.48850000000012 25.54781712210969 L77.48850000000012 25.54781712210969z" stroke-width="1.0" stroke-linejoin="round" stroke="#000000"/><path fill="#0430ad" fill-opacity="1.0" d="M60.88085696381525 34.29664695203517 Q60.88085696381525 36.11138037454616 59.22075670030217 36.11138037454616 L1.6601002635130817 36.11138037454616 Q0.0 36.11138037454616 0.0 34.29664695203517 L0.0 12.802944295815022 Q0.0 10.988210873304034 1.6601002635130817 10.988210873304034 L59.22075670030217 10.988210873304034 Q60.88085696381525 10.988210873304034 60.88085696381525 12.802944295815022 L60.88085696381525 34.29845987072426 L60.88085696381525 34.29664695203517z" stroke-width="1.0" stroke-linejoin="round" stroke="#000000"/><path fill="#ffffff" fill-opacity="1.0" d="M18.442053827366824 20.537339594343596 L20.186818540278967 20.537339594343596 L20.186818540278967 18.43043354638831 L23.1019555990681 17.439590005064023 L23.1019555990681 20.537339594343596 L25.177080596439396 20.537339594343596 L25.177080596439396 22.80575637248233 L23.1019555990681 22.80575637248233 L23.1019555990681 26.262822997945733 Q23.1019555990681 27.974116433900253 24.287266855196386 27.974116433900253 Q24.502525747985125 27.974116433900253 25.192021498811016 27.847085638744513 L25.291628178661902 29.953991686699794 Q23.90698005137223 30.133652110261806 23.430655119223633 30.133652110261806 Q20.137016030403654 30.133652110261806 20.137016030403654 26.62214366359641 L20.137016030403654 22.803944361159953 L18.442053827366824 22.803944361159953 L18.442053827366824 20.535527583021217 L18.442053827366824 20.537339594343596z" stroke="none"/><path fill="#ffffff" fill-opacity="1.0" d="M28.65333137828592 25.146761035734766 L25.96894832252912 20.537338142556855 L29.47674160701849 20.537338142556855 L30.74505804233246 23.34654602502389 L32.07978014828721 20.537338142556855 L35.32527599744526 20.537338142556855 L32.640893041294476 25.110465459917833 L35.506226096118056 29.917694659096128 L31.93203022877439 29.917694659096128 L30.499362041262337 27.0014173232276 L29.081636416222164 29.917694659096128 L25.738194485506817 29.917694659096128 L28.65333137828592 25.146761035734766 L28.65333137828592 25.146761035734766z" stroke="none"/><path fill="#ffffff" fill-opacity="1.0" d="M35.816663185294736 20.537339594343596 L37.563088662510495 20.537339594343596 L37.563088662510495 18.43043354638831 L40.47822572129962 17.439590005064023 L40.47822572129962 20.537339594343596 L42.55335105069098 20.537339594343596 L42.55335105069098 22.80575637248233 L40.47822572129962 22.80575637248233 L40.47822572129962 26.262822997945733 Q40.47822572129962 27.974116433900253 41.66353847151815 27.974116433900253 Q41.87658577873584 27.974116433900253 42.56995271736621 27.847085638744513 L42.669557571106814 29.953991686699794 Q41.284907783716875 30.133652110261806 40.808584677678574 30.133652110261806 Q37.514946916938804 30.133652110261806 37.514946916938804 26.62214366359641 L37.514946916938804 22.803944361159953 L35.81832553997441 22.803944361159953 L35.81832553997441 20.535527583021217 L35.816663185294736 20.537339594343596z" stroke="none"/><path fill="#969696" fill-opacity="1.0" d="M18.95502473188706 68.82920924899676 L18.95502473188706 70.64394267150774 L65.85285559293666 70.64394267150774 L65.85285559293666 68.82920924899676 L18.955023148692103 68.82920924899676 L18.95502473188706 68.82920924899676z" stroke="none"/><path fill="#969696" fill-opacity="1.0" d="M18.95502473188706 42.38309908274413 L18.95502473188706 44.19783250525512 L65.85285559293666 44.19783250525512 L65.85285559293666 42.38309908274413 L18.955023148692103 42.38309908274413 L18.95502473188706 42.38309908274413z" stroke="none"/><path fill="#969696" fill-opacity="1.0" d="M18.95502473188706 47.673047009363664 L18.95502473188706 49.487780431874654 L65.85285559293666 49.487780431874654 L65.85285559293666 47.673047009363664 L18.955023148692103 47.673047009363664 L18.95502473188706 47.673047009363664z" stroke="none"/><path fill="#969696" fill-opacity="1.0" d="M18.95502473188706 52.96118020256068 L18.95502473188706 54.775913625071674 L65.85285559293666 54.775913625071674 L65.85285559293666 52.96118020256068 L18.955023148692103 52.96118020256068 L18.95502473188706 52.96118020256068z" stroke="none"/><path fill="#969696" fill-opacity="1.0" d="M18.95502473188706 58.25112812918021 L18.95502473188706 60.0658615516912 L65.85285559293666 60.0658615516912 L65.85285559293666 58.25112812918021 L18.955023148692103 58.25112812918021 L18.95502473188706 58.25112812918021z" stroke="none"/><path fill="#969696" fill-opacity="1.0" d="M18.95502473188706 63.53926132237723 L18.95502473188706 65.35399474488823 L65.85285559293666 65.35399474488823 L65.85285559293666 63.53926132237723 L18.955023148692103 63.53926132237723 L18.95502473188706 63.53926132237723z" stroke="none"/><path fill="#969696" fill-opacity="1.0" d="M18.95502473188706 74.11734244219379 L18.95502473188706 75.93207586470477 L65.85285559293666 75.93207586470477 L65.85285559293666 74.11734244219379 L18.955023148692103 74.11734244219379 L18.95502473188706 74.11734244219379z" stroke="none"/><path fill="#969696" fill-opacity="1.0" d="M18.95502473188706 79.4054756353908 L18.95502473188706 81.2202090579018 L65.85285559293666 81.2202090579018 L65.85285559293666 79.4054756353908 L18.955023148692103 79.4054756353908 L18.95502473188706 79.4054756353908z" stroke="none"/><path fill="url(#id1)" d="M77.4884966797996 25.66758952799542 L55.75778423041335 25.66758952799542 Q54.09768396690027 25.66758952799542 54.09768396690027 23.852856105484435 L54.09768396690027 0.0 L77.4884966797996 25.66758952799542 L77.4884966797996 25.66758952799542z" stroke-width="1.0" stroke-linejoin="round" stroke="#000000"/></g><g transform="translate(326.5114999999999 62.034999999999975)"><path fill="url(#id2)" d="M77.48850000000012 25.54781712210969 L54.056184780512964 0.0 L10.276020631145975 0.0 Q8.615920367632894 0.0 8.615920367632894 1.8147334225109883 L8.615920367632894 93.15026657748903 Q8.615920367632894 94.96500000000002 10.276020631145975 94.96500000000002 L75.82839973648704 94.96500000000002 Q77.48850000000012 94.96500000000002 77.48850000000012 93.15026657748903 L77.48850000000012 25.54781712210969 L77.48850000000012 25.54781712210969z" stroke-width="1.0" stroke-linejoin="round" stroke="#000000"/><path fill="#0430ad" fill-opacity="1.0" d="M60.88085696381525 34.29664695203517 Q60.88085696381525 36.11138037454616 59.22075670030217 36.11138037454616 L1.6601002635130817 36.11138037454616 Q0.0 36.11138037454616 0.0 34.29664695203517 L0.0 12.802944295815022 Q0.0 10.988210873304034 1.6601002635130817 10.988210873304034 L59.22075670030217 10.988210873304034 Q60.88085696381525 10.988210873304034 60.88085696381525 12.802944295815022 L60.88085696381525 34.29845987072426 L60.88085696381525 34.29664695203517z" stroke-width="1.0" stroke-linejoin="round" stroke="#000000"/><path fill="#ffffff" fill-opacity="1.0" d="M18.442053827366824 20.537339594343596 L20.186818540278967 20.537339594343596 L20.186818540278967 18.43043354638831 L23.1019555990681 17.439590005064023 L23.1019555990681 20.537339594343596 L25.177080596439396 20.537339594343596 L25.177080596439396 22.80575637248233 L23.1019555990681 22.80575637248233 L23.1019555990681 26.262822997945733 Q23.1019555990681 27.974116433900253 24.287266855196386 27.974116433900253 Q24.502525747985125 27.974116433900253 25.192021498811016 27.847085638744513 L25.291628178661902 29.953991686699794 Q23.90698005137223 30.133652110261806 23.430655119223633 30.133652110261806 Q20.137016030403654 30.133652110261806 20.137016030403654 26.62214366359641 L20.137016030403654 22.803944361159953 L18.442053827366824 22.803944361159953 L18.442053827366824 20.535527583021217 L18.442053827366824 20.537339594343596z" stroke="none"/><path fill="#ffffff" fill-opacity="1.0" d="M28.65333137828592 25.146761035734766 L25.96894832252912 20.537338142556855 L29.47674160701849 20.537338142556855 L30.74505804233246 23.34654602502389 L32.07978014828721 20.537338142556855 L35.32527599744526 20.537338142556855 L32.640893041294476 25.110465459917833 L35.506226096118056 29.917694659096128 L31.93203022877439 29.917694659096128 L30.499362041262337 27.0014173232276 L29.081636416222164 29.917694659096128 L25.738194485506817 29.917694659096128 L28.65333137828592 25.146761035734766 L28.65333137828592 25.146761035734766z" stroke="none"/><path fill="#ffffff" fill-opacity="1.0" d="M35.816663185294736 20.537339594343596 L37.563088662510495 20.537339594343596 L37.563088662510495 18.43043354638831 L40.47822572129962 17.439590005064023 L40.47822572129962 20.537339594343596 L42.55335105069098 20.537339594343596 L42.55335105069098 22.80575637248233 L40.47822572129962 22.80575637248233 L40.47822572129962 26.262822997945733 Q40.47822572129962 27.974116433900253 41.66353847151815 27.974116433900253 Q41.87658577873584 27.974116433900253 42.56995271736621 27.847085638744513 L42.669557571106814 29.953991686699794 Q41.284907783716875 30.133652110261806 40.808584677678574 30.133652110261806 Q37.514946916938804 30.133652110261806 37.514946916938804 26.62214366359641 L37.514946916938804 22.803944361159953 L35.81832553997441 22.803944361159953 L35.81832553997441 20.535527583021217 L35.816663185294736 20.537339594343596z" stroke="none"/><path fill="#969696" fill-opacity="1.0" d="M18.95502473188706 68.82920924899676 L18.95502473188706 70.64394267150774 L65.85285559293666 70.64394267150774 L65.85285559293666 68.82920924899676 L18.955023148692103 68.82920924899676 L18.95502473188706 68.82920924899676z" stroke="none"/><path fill="#969696" fill-opacity="1.0" d="M18.95502473188706 42.38309908274413 L18.95502473188706 44.19783250525512 L65.85285559293666 44.19783250525512 L65.85285559293666 42.38309908274413 L18.955023148692103 42.38309908274413 L18.95502473188706 42.38309908274413z" stroke="none"/><path fill="#969696" fill-opacity="1.0" d="M18.95502473188706 47.673047009363664 L18.95502473188706 49.487780431874654 L65.85285559293666 49.487780431874654 L65.85285559293666 47.673047009363664 L18.955023148692103 47.673047009363664 L18.95502473188706 47.673047009363664z" stroke="none"/><path fill="#969696" fill-opacity="1.0" d="M18.95502473188706 52.96118020256068 L18.95502473188706 54.775913625071674 L65.85285559293666 54.775913625071674 L65.85285559293666 52.96118020256068 L18.955023148692103 52.96118020256068 L18.95502473188706 52.96118020256068z" stroke="none"/><path fill="#969696" fill-opacity="1.0" d="M18.95502473188706 58.25112812918021 L18.95502473188706 60.0658615516912 L65.85285559293666 60.0658615516912 L65.85285559293666 58.25112812918021 L18.955023148692103 58.25112812918021 L18.95502473188706 58.25112812918021z" stroke="none"/><path fill="#969696" fill-opacity="1.0" d="M18.95502473188706 63.53926132237723 L18.95502473188706 65.35399474488823 L65.85285559293666 65.35399474488823 L65.85285559293666 63.53926132237723 L18.955023148692103 63.53926132237723 L18.95502473188706 63.53926132237723z" stroke="none"/><path fill="#969696" fill-opacity="1.0" d="M18.95502473188706 74.11734244219379 L18.95502473188706 75.93207586470477 L65.85285559293666 75.93207586470477 L65.85285559293666 74.11734244219379 L18.955023148692103 74.11734244219379 L18.95502473188706 74.11734244219379z" stroke="none"/><path fill="#969696" fill-opacity="1.0" d="M18.95502473188706 79.4054756353908 L18.95502473188706 81.2202090579018 L65.85285559293666 81.2202090579018 L65.85285559293666 79.4054756353908 L18.955023148692103 79.4054756353908 L18.95502473188706 79.4054756353908z" stroke="none"/><path fill="url(#id3)" d="M77.4884966797996 25.66758952799542 L55.75778423041335 25.66758952799542 Q54.09768396690027 25.66758952799542 54.09768396690027 23.852856105484435 L54.09768396690027 0.0 L77.4884966797996 25.66758952799542 L77.4884966797996 25.66758952799542z" stroke-width="1.0" stroke-linejoin="round" stroke="#000000"/></g><g transform="translate(128.0 39.0)"><clipPath id="id4"><path d="M0 0 L149.5 0 L149.5 21.0 L0 21.0z"/></clipPath><text font-size="12" clip-path="url(#id4)" text-decoration="none" fill="#dc0800" font-family="Arial,Arial" font-style="normal" font-weight="normal"><tspan x="2.0" xml:space="preserve" y="13.0" textLength="136.0">madonna - gang bang.txt</tspan></text></g><g transform="translate(326.5114999999999 39.0)"><clipPath id="id5"><path d="M0 0 L87.4885000000001 0 L87.4885000000001 21.0 L0 21.0z"/></clipPath><text font-size="12" clip-path="url(#id5)" text-decoration="none" fill="#dc0800" font-family="Arial,Arial" font-style="normal" font-weight="normal"><tspan x="2.0" xml:space="preserve" y="13.0" textLength="67.0">u2 - pride.txt</tspan></text></g><g transform="translate(147.0 234.0)"><path fill="#ffffff" fill-opacity="1.0" d="M0.0 42.0 L448.48849999999993 42.0 L448.48849999999993 9.746519999999997 L369.68907054999994 6.353759159999999 L344.41225868999965 0.0 L0.0 0.0 L0.0 42.0 L0.0 42.0z" stroke-width="1.0" stroke-linejoin="round" stroke="#000000"/><path fill="#ffffff" fill-opacity="1.0" d="M448.4885089697698 9.74652 L344.41225868999965 8.066520000000002 Q346.6547011899996 7.863240000000002 348.89714368999967 7.324065000000002 Q353.3820286899997 6.245714748000003 353.3820286899997 4.566240000000001 Q353.3820286899997 2.8867654199999997 348.89714368999967 1.2754349159999998 Q346.6547011899996 0.46976991599999995 344.41225868999965 0.0 L448.4885089697698 9.74652 L448.4885089697698 9.74652z" stroke-width="1.0" stroke-linejoin="round" stroke="#000000"/><g transform="translate(3.8928803168678248 0.30156002283096317)"><clipPath id="id6"><path d="M0 0 L438.91774336563066 0 L438.91774336563066 41.268361358642565 L0 41.268361358642565z"/></clipPath><text font-size="12" clip-path="url(#id6)" text-decoration="none" fill="#000000" font-family="Arial,Arial" font-style="normal" font-weight="normal"/></g></g><g transform="translate(28.5 235.0)"><clipPath id="id7"><path d="M0 0 L104.5 0 L104.5 69.0 L0 69.0z"/></clipPath><text font-size="12" clip-path="url(#id7)" text-decoration="none" fill="#dc0800" font-family="Arial,Arial" font-style="normal" font-weight="normal"><tspan x="31.0" xml:space="preserve" y="13.0" textLength="41.0">Archivo</tspan><tspan x="6.0" xml:space="preserve" y="27.0" textLength="94.0">maestro (archivo </tspan><tspan x="11.0" xml:space="preserve" y="41.0" textLength="84.0">de registros de </tspan><tspan x="4.0" xml:space="preserve" y="55.0" textLength="95.0">longitud variable)</tspan></text></g><g transform="translate(164.25574999999995 171.0)"><path fill="#ffffff" fill-opacity="1.0" d="M18.0 50.0 L0.0 28.0 L10.0 28.0 L10.0 0.0 L26.0 0.0 L26.0 28.0 L36.0 28.0 L18.0 50.0z" stroke-width="1.0" stroke-linejoin="round" stroke="#000000"/><g transform="translate(10.0 0.0)"><clipPath id="id8"><path d="M0 0 L16.0 0 L16.0 40.0 L0 40.0z"/></clipPath><text font-size="10" clip-path="url(#id8)" text-decoration="none" fill="#000000" font-family="Arial,Arial" font-style="normal" font-weight="normal"/></g></g><g transform="translate(347.2557499999999 171.0)"><path fill="#ffffff" fill-opacity="1.0" d="M18.0 50.0 L0.0 28.0 L10.0 28.0 L10.0 0.0 L26.0 0.0 L26.0 28.0 L36.0 28.0 L18.0 50.0z" stroke-width="1.0" stroke-linejoin="round" stroke="#000000"/><g transform="translate(10.0 0.0)"><clipPath id="id9"><path d="M0 0 L16.0 0 L16.0 40.0 L0 40.0z"/></clipPath><text font-size="10" clip-path="url(#id9)" text-decoration="none" fill="#000000" font-family="Arial,Arial" font-style="normal" font-weight="normal"/></g></g><g transform="translate(208.0 180.0)"><clipPath id="id10"><path d="M0 0 L86.75574999999992 0 L86.75574999999992 20.0 L0 20.0z"/></clipPath><text font-size="12" clip-path="url(#id10)" text-decoration="none" fill="#000000" font-family="Arial,Arial" font-style="normal" font-weight="normal"><tspan x="2.0" xml:space="preserve" y="13.0" textLength="67.0">Compresión</tspan></text></g><g transform="translate(389.0 181.0)"><clipPath id="id11"><path d="M0 0 L87.5114999999999 0 L87.5114999999999 19.0 L0 19.0z"/></clipPath><text font-size="12" clip-path="url(#id11)" text-decoration="none" fill="#000000" font-family="Arial,Arial" font-style="normal" font-weight="normal"><tspan x="2.0" xml:space="preserve" y="13.0" textLength="67.0">Compresión</tspan></text></g><g transform="translate(147.0 286.0)"><clipPath id="id12"><path d="M0 0 L29.0 0 L29.0 18.0 L0 18.0z"/></clipPath><text font-size="12" clip-path="url(#id12)" text-decoration="none" fill="#000000" font-family="Arial,Arial" font-style="normal" font-weight="normal"><tspan x="2.0" xml:space="preserve" y="13.0" textLength="7.0">0</tspan></text></g><g transform="translate(335.2557499999999 286.0)"><clipPath id="id13"><path d="M0 0 L48.0 0 L48.0 18.0 L0 18.0z"/></clipPath><text font-size="12" clip-path="url(#id13)" text-decoration="none" fill="#000000" font-family="Arial,Arial" font-style="normal" font-weight="normal"><tspan x="2.0" xml:space="preserve" y="13.0" textLength="28.0">1560</tspan></text></g><path fill="none" d="M326.0 233.0 L326.0 279.0" stroke-dasharray="1.0 1.0" stroke-width="1.0" stroke-linejoin="round" stroke="#000000"/><path fill="none" d="M476.5114994999999 232.0 L476.5114994999999 278.0" stroke-dasharray="1.0 1.0" stroke-width="1.0" stroke-linejoin="round" stroke="#000000"/><g transform="translate(163.0 264.0)"><clipPath id="id14"><path d="M0 0 L150.0 0 L150.0 40.0 L0 40.0z"/></clipPath><text font-size="12" clip-path="url(#id14)" text-decoration="none" fill="#000000" font-family="Arial,Arial" font-style="normal" font-weight="normal"/></g><g transform="translate(164.0 259.0)"><clipPath id="id15"><path d="M0 0 L150.0 0 L150.0 40.0 L0 40.0z"/></clipPath><text font-size="12" clip-path="url(#id15)" text-decoration="none" fill="#000000" font-family="Arial,Arial" font-style="normal" font-weight="normal"/></g><g transform="translate(147.0 246.0)"><clipPath id="id16"><path d="M0 0 L150.0 0 L150.0 40.0 L0 40.0z"/></clipPath><text font-size="12" clip-path="url(#id16)" text-decoration="none" fill="#000000" font-family="Arial,Arial" font-style="normal" font-weight="normal"><tspan x="2.0" xml:space="preserve" y="13.0" textLength="140.0">Registro de gang bang.txt</tspan></text></g><g transform="translate(326.5114999999999 246.0)"><clipPath id="id17"><path d="M0 0 L150.0 0 L150.0 40.0 L0 40.0z"/></clipPath><text font-size="12" clip-path="url(#id17)" text-decoration="none" fill="#000000" font-family="Arial,Arial" font-style="normal" font-weight="normal"><tspan x="2.0" xml:space="preserve" y="13.0" textLength="109.0">Registro de pride.txt</tspan></text></g><g transform="translate(272.0 332.0)"><path fill="#ffffff" fill-opacity="1.0" d="M129.5114999999999 112.0 Q129.5114999999999 117.0 124.5114999999999 117.0 L5.0 117.0 Q0.0 117.0 0.0 112.0 L0.0 5.0 Q0.0 0.0 5.0 0.0 L124.5114999999999 0.0 Q129.5114999999999 0.0 129.5114999999999 5.0 L129.5114999999999 112.0 L129.5114999999999 112.0z" stroke-width="1.0" stroke-linejoin="round" stroke="#000000"/><g transform="translate(1.0 1.0)"><clipPath id="id18"><path d="M0 0 L127.5114999999999 0 L127.5114999999999 115.0 L0 115.0z"/></clipPath><text font-size="12" clip-path="url(#id18)" text-decoration="none" fill="#000000" font-family="Arial,Arial" font-style="normal" font-weight="normal"/></g></g><path fill="none" d="M336.7557499999999 332.0 L335.0 448.0" stroke-dasharray="1.0 1.0" stroke-width="1.0" stroke-linejoin="round" stroke="#000000"/><path fill="none" d="M401.5114999999999 390.5 L272.0 390.5" stroke-dasharray="1.0 1.0" stroke-width="1.0" stroke-linejoin="round" stroke="#000000"/><path fill="none" d="M272.0 361.25 L401.0 363.0" stroke-dasharray="1.0 1.0" stroke-width="1.0" stroke-linejoin="round" stroke="#000000"/><path fill="none" d="M401.5114999999999 419.75 L271.0 419.0" stroke-dasharray="1.0 1.0" stroke-width="1.0" stroke-linejoin="round" stroke="#000000"/><g transform="translate(291.0 339.0)"><clipPath id="id19"><path d="M0 0 L23.0 0 L23.0 20.0 L0 20.0z"/></clipPath><text font-size="12" clip-path="url(#id19)" text-decoration="none" fill="#000000" font-family="Arial,Arial" font-style="normal" font-weight="normal"><tspan x="2.0" xml:space="preserve" y="13.0" textLength="7.0">1</tspan></text></g><g transform="translate(291.0 366.0)"><clipPath id="id20"><path d="M0 0 L23.0 0 L23.0 20.0 L0 20.0z"/></clipPath><text font-size="12" clip-path="url(#id20)" text-decoration="none" fill="#000000" font-family="Arial,Arial" font-style="normal" font-weight="normal"><tspan x="2.0" xml:space="preserve" y="13.0" textLength="7.0">2</tspan></text></g><g transform="translate(358.0 335.0)"><clipPath id="id21"><path d="M0 0 L25.25574999999992 0 L25.25574999999992 14.0 L0 14.0z"/></clipPath><text font-size="12" clip-path="url(#id21)" text-decoration="none" fill="#000000" font-family="Arial,Arial" font-style="normal" font-weight="normal"><tspan x="2.0" xml:space="preserve" y="13.0" textLength="7.0">0</tspan></text></g><g transform="translate(357.0 368.0)"><clipPath id="id22"><path d="M0 0 L32.0 0 L32.0 18.0 L0 18.0z"/></clipPath><text font-size="12" clip-path="url(#id22)" text-decoration="none" fill="#000000" font-family="Arial,Arial" font-style="normal" font-weight="normal"><tspan x="2.0" xml:space="preserve" y="13.0" textLength="28.0">1560</tspan></text></g><path fill="none" marker-end="url(#id23)" d="M369.13362499999994 332.0 Q363.2172781995575 315.61159201645836 355.5 311.0 Q299.9850548054108 277.8260918638164 176.0 296.1958762886598" stroke-width="1.0" stroke-linejoin="round" stroke="#000000"/><path fill="none" marker-end="url(#id24)" d="M401.8863636363636 377.8041237113402 Q438.40101966236074 353.3748956102194 436.6136363636364 340.8041237113402 Q434.06921640730076 322.9090684599702 374.4557128168927 304.0" stroke-width="1.0" stroke-linejoin="round" stroke="#000000"/><path fill="none" marker-end="url(#id25)" d="M401.5114999999999 419.75 Q423.46923145406134 389.31311674945425 439.7144138503541 370.40206185567007 Q465.37262803904946 340.5332745954164 507.66645490221487 299.0" stroke-width="1.0" stroke-linejoin="round" stroke="#000000"/><g transform="translate(480.0 282.0)"><clipPath id="id26"><path d="M0 0 L71.51149999999984 0 L71.51149999999984 17.0 L0 17.0z"/></clipPath><text font-size="12" clip-path="url(#id26)" text-decoration="none" fill="#000000" font-family="Arial,Arial" font-style="normal" font-weight="normal"><tspan x="2.0" xml:space="preserve" y="13.0" textLength="28.0">2000</tspan></text></g><g transform="translate(287.2442500000001 460.0)"><clipPath id="id27"><path d="M0 0 L94.51149999999984 0 L94.51149999999984 66.0 L0 66.0z"/></clipPath><text font-size="12" clip-path="url(#id27)" text-decoration="none" fill="#dc0800" font-family="Arial,Arial" font-style="normal" font-weight="normal"><tspan x="6.0" xml:space="preserve" y="13.0" textLength="81.0">Índice primario</tspan><tspan x="31.0" xml:space="preserve" y="27.0" textLength="34.0">(hash </tspan><tspan x="17.0" xml:space="preserve" y="41.0" textLength="60.0">extensible)</tspan></text></g><g transform="translate(40.99999999999997 542.0)"><path fill="#ffffff" fill-opacity="1.0" d="M129.5114999999999 112.0 Q129.5114999999999 117.0 124.5114999999999 117.0 L5.0 117.0 Q0.0 117.0 0.0 112.0 L0.0 5.0 Q0.0 0.0 5.0 0.0 L124.5114999999999 0.0 Q129.5114999999999 0.0 129.5114999999999 5.0 L129.5114999999999 112.0 L129.5114999999999 112.0z" stroke-width="1.0" stroke-linejoin="round" stroke="#000000"/><g transform="translate(1.0 1.0)"><clipPath id="id28"><path d="M0 0 L127.51149999999987 0 L127.51149999999987 115.0 L0 115.0z"/></clipPath><text font-size="12" clip-path="url(#id28)" text-decoration="none" fill="#000000" font-family="Arial,Arial" font-style="normal" font-weight="normal"/></g></g><g transform="translate(56.24425000000005 671.0)"><clipPath id="id29"><path d="M0 0 L114.26724999999979 0 L114.26724999999979 52.0 L0 52.0z"/></clipPath><text font-size="12" clip-path="url(#id29)" text-decoration="none" fill="#dc0800" font-family="Arial,Arial" font-style="normal" font-weight="normal"><tspan x="8.0" xml:space="preserve" y="13.0" textLength="100.0">Índice secundario </tspan><tspan x="33.0" xml:space="preserve" y="27.0" textLength="47.0">por título</tspan><tspan x="10.0" xml:space="preserve" y="41.0" textLength="94.0">(hash extensible)</tspan></text></g><path fill="none" d="M40.99999999999997 571.25 L174.0 569.0" stroke-dasharray="1.0 1.0" stroke-width="1.0" stroke-linejoin="round" stroke="#000000"/><path fill="none" d="M40.99999999999997 600.5 L171.0 599.0" stroke-dasharray="1.0 1.0" stroke-width="1.0" stroke-linejoin="round" stroke="#000000"/><path fill="none" d="M40.99999999999997 629.75 L170.0 631.0" stroke-dasharray="1.0 1.0" stroke-width="1.0" stroke-linejoin="round" stroke="#000000"/><path fill="none" d="M105.75574999999992 542.0 L104.0 660.0" stroke-dasharray="1.0 1.0" stroke-width="1.0" stroke-linejoin="round" stroke="#000000"/><g transform="translate(40.0 542.0)"><clipPath id="id30"><path d="M0 0 L77.0 0 L77.0 31.0 L0 31.0z"/></clipPath><text font-size="12" clip-path="url(#id30)" text-decoration="none" fill="#000000" font-family="Arial,Arial" font-style="normal" font-weight="normal"><tspan x="2.0" xml:space="preserve" y="13.0" textLength="59.0">gang bang</tspan></text></g><g transform="translate(41.0 574.0)"><clipPath id="id31"><path d="M0 0 L51.0 0 L51.0 26.5 L0 26.5z"/></clipPath><text font-size="12" clip-path="url(#id31)" text-decoration="none" fill="#000000" font-family="Arial,Arial" font-style="normal" font-weight="normal"><tspan x="2.0" xml:space="preserve" y="13.0" textLength="28.0">pride</tspan></text></g><g transform="translate(134.0 543.0)"><clipPath id="id32"><path d="M0 0 L13.0 0 L13.0 19.0 L0 19.0z"/></clipPath><text font-size="12" clip-path="url(#id32)" text-decoration="none" fill="#000000" font-family="Arial,Arial" font-style="normal" font-weight="normal"><tspan x="2.0" xml:space="preserve" y="13.0" textLength="7.0">1</tspan></text></g><g transform="translate(133.0 576.0)"><clipPath id="id33"><path d="M0 0 L31.0 0 L31.0 24.5 L0 24.5z"/></clipPath><text font-size="12" clip-path="url(#id33)" text-decoration="none" fill="#000000" font-family="Arial,Arial" font-style="normal" font-weight="normal"><tspan x="2.0" xml:space="preserve" y="13.0" textLength="7.0">2</tspan></text></g><path fill="none" stroke-linejoin="round" stroke-dasharray="1.0 1.0" d="M141.4095744680851 543.0 Q128.8181038332334 451.3787488680749 154.0 411.5 Q179.7776589079582 370.6777847391007 270.0 342.0" stroke="#74c14a" stroke-width="1.0" marker-end="url(#id34)"/><path fill="none" stroke-linejoin="round" stroke-dasharray="1.0 1.0" d="M296.42344497607655 386.0 Q264.70846734948844 444.6650594732273 238.99999999999997 480.5 Q210.00481542294466 520.9162838941952 158.7888631090487 576.0" stroke="#51b11d" marker-start="url(#id35)" stroke-width="1.0"/><g transform="translate(417.01149999999984 592.0)"><path fill="#ffffff" fill-opacity="1.0" d="M71.00000000000003 25.0 L0.0 25.0 L0.0 0.0 L71.00000000000003 0.0 L71.00000000000003 25.0z" stroke-width="1.0" stroke-linejoin="round" stroke="#000000"/><g transform="translate(1.0 1.0)"><clipPath id="id36"><path d="M0 0 L69.0 0 L69.0 23.0 L0 23.0z"/></clipPath><text font-size="12" clip-path="url(#id36)" text-decoration="none" fill="#000000" font-family="Arial,Arial" font-style="normal" font-weight="normal"><tspan x="7.0" xml:space="preserve" y="15.5" textLength="55.0">Queen-12</tspan></text></g></g><g transform="translate(335.2557499999999 637.75)"><path fill="#ffffff" fill-opacity="1.0" d="M92.99999999999997 25.0 L0.0 25.0 L0.0 0.0 L92.99999999999997 0.0 L92.99999999999997 25.0z" stroke-width="1.0" stroke-linejoin="round" stroke="#000000"/><g transform="translate(1.0 1.0)"><clipPath id="id37"><path d="M0 0 L91.0 0 L91.0 23.0 L0 23.0z"/></clipPath><text font-size="12" clip-path="url(#id37)" text-decoration="none" fill="#000000" font-family="Arial,Arial" font-style="normal" font-weight="normal"><tspan x="14.0" xml:space="preserve" y="15.5" textLength="63.0">madonna-1</tspan></text></g></g><g transform="translate(533.5 637.75)"><path fill="#ffffff" fill-opacity="1.0" d="M82.99999999999999 25.0 L0.0 25.0 L0.0 0.0 L82.99999999999999 0.0 L82.99999999999999 25.0z" stroke-width="1.0" stroke-linejoin="round" stroke="#000000"/><g transform="translate(1.0 1.0)"><clipPath id="id38"><path d="M0 0 L81.0 0 L81.0 23.0 L0 23.0z"/></clipPath><text font-size="12" clip-path="url(#id38)" text-decoration="none" fill="#000000" font-family="Arial,Arial" font-style="normal" font-weight="normal"><tspan x="14.0" xml:space="preserve" y="15.5" textLength="53.0">u2-2,u2-3</tspan></text></g></g><g transform="translate(515.0114999999998 68.03499999999997)"><path fill="url(#id39)" d="M77.48850000000012 25.54781712210969 L54.056184780512964 0.0 L10.276020631145975 0.0 Q8.615920367632894 0.0 8.615920367632894 1.8147334225109883 L8.615920367632894 93.15026657748903 Q8.615920367632894 94.96500000000002 10.276020631145975 94.96500000000002 L75.82839973648704 94.96500000000002 Q77.48850000000012 94.96500000000002 77.48850000000012 93.15026657748903 L77.48850000000012 25.54781712210969 L77.48850000000012 25.54781712210969z" stroke-width="1.0" stroke-linejoin="round" stroke="#000000"/><path fill="#0430ad" fill-opacity="1.0" d="M60.88085696381525 34.29664695203517 Q60.88085696381525 36.11138037454616 59.22075670030217 36.11138037454616 L1.6601002635130817 36.11138037454616 Q0.0 36.11138037454616 0.0 34.29664695203517 L0.0 12.802944295815022 Q0.0 10.988210873304034 1.6601002635130817 10.988210873304034 L59.22075670030217 10.988210873304034 Q60.88085696381525 10.988210873304034 60.88085696381525 12.802944295815022 L60.88085696381525 34.29845987072426 L60.88085696381525 34.29664695203517z" stroke-width="1.0" stroke-linejoin="round" stroke="#000000"/><path fill="#ffffff" fill-opacity="1.0" d="M18.442053827366824 20.537339594343596 L20.186818540278967 20.537339594343596 L20.186818540278967 18.43043354638831 L23.1019555990681 17.439590005064023 L23.1019555990681 20.537339594343596 L25.177080596439396 20.537339594343596 L25.177080596439396 22.80575637248233 L23.1019555990681 22.80575637248233 L23.1019555990681 26.262822997945733 Q23.1019555990681 27.974116433900253 24.287266855196386 27.974116433900253 Q24.502525747985125 27.974116433900253 25.192021498811016 27.847085638744513 L25.291628178661902 29.953991686699794 Q23.90698005137223 30.133652110261806 23.430655119223633 30.133652110261806 Q20.137016030403654 30.133652110261806 20.137016030403654 26.62214366359641 L20.137016030403654 22.803944361159953 L18.442053827366824 22.803944361159953 L18.442053827366824 20.535527583021217 L18.442053827366824 20.537339594343596z" stroke="none"/><path fill="#ffffff" fill-opacity="1.0" d="M28.65333137828592 25.146761035734766 L25.96894832252912 20.537338142556855 L29.47674160701849 20.537338142556855 L30.74505804233246 23.34654602502389 L32.07978014828721 20.537338142556855 L35.32527599744526 20.537338142556855 L32.640893041294476 25.110465459917833 L35.506226096118056 29.917694659096128 L31.93203022877439 29.917694659096128 L30.499362041262337 27.0014173232276 L29.081636416222164 29.917694659096128 L25.738194485506817 29.917694659096128 L28.65333137828592 25.146761035734766 L28.65333137828592 25.146761035734766z" stroke="none"/><path fill="#ffffff" fill-opacity="1.0" d="M35.816663185294736 20.537339594343596 L37.563088662510495 20.537339594343596 L37.563088662510495 18.43043354638831 L40.47822572129962 17.439590005064023 L40.47822572129962 20.537339594343596 L42.55335105069098 20.537339594343596 L42.55335105069098 22.80575637248233 L40.47822572129962 22.80575637248233 L40.47822572129962 26.262822997945733 Q40.47822572129962 27.974116433900253 41.66353847151815 27.974116433900253 Q41.87658577873584 27.974116433900253 42.56995271736621 27.847085638744513 L42.669557571106814 29.953991686699794 Q41.284907783716875 30.133652110261806 40.808584677678574 30.133652110261806 Q37.514946916938804 30.133652110261806 37.514946916938804 26.62214366359641 L37.514946916938804 22.803944361159953 L35.81832553997441 22.803944361159953 L35.81832553997441 20.535527583021217 L35.816663185294736 20.537339594343596z" stroke="none"/><path fill="#969696" fill-opacity="1.0" d="M18.95502473188706 68.82920924899676 L18.95502473188706 70.64394267150774 L65.85285559293666 70.64394267150774 L65.85285559293666 68.82920924899676 L18.955023148692103 68.82920924899676 L18.95502473188706 68.82920924899676z" stroke="none"/><path fill="#969696" fill-opacity="1.0" d="M18.95502473188706 42.38309908274413 L18.95502473188706 44.19783250525512 L65.85285559293666 44.19783250525512 L65.85285559293666 42.38309908274413 L18.955023148692103 42.38309908274413 L18.95502473188706 42.38309908274413z" stroke="none"/><path fill="#969696" fill-opacity="1.0" d="M18.95502473188706 47.673047009363664 L18.95502473188706 49.487780431874654 L65.85285559293666 49.487780431874654 L65.85285559293666 47.673047009363664 L18.955023148692103 47.673047009363664 L18.95502473188706 47.673047009363664z" stroke="none"/><path fill="#969696" fill-opacity="1.0" d="M18.95502473188706 52.96118020256068 L18.95502473188706 54.775913625071674 L65.85285559293666 54.775913625071674 L65.85285559293666 52.96118020256068 L18.955023148692103 52.96118020256068 L18.95502473188706 52.96118020256068z" stroke="none"/><path fill="#969696" fill-opacity="1.0" d="M18.95502473188706 58.25112812918021 L18.95502473188706 60.0658615516912 L65.85285559293666 60.0658615516912 L65.85285559293666 58.25112812918021 L18.955023148692103 58.25112812918021 L18.95502473188706 58.25112812918021z" stroke="none"/><path fill="#969696" fill-opacity="1.0" d="M18.95502473188706 63.53926132237723 L18.95502473188706 65.35399474488823 L65.85285559293666 65.35399474488823 L65.85285559293666 63.53926132237723 L18.955023148692103 63.53926132237723 L18.95502473188706 63.53926132237723z" stroke="none"/><path fill="#969696" fill-opacity="1.0" d="M18.95502473188706 74.11734244219379 L18.95502473188706 75.93207586470477 L65.85285559293666 75.93207586470477 L65.85285559293666 74.11734244219379 L18.955023148692103 74.11734244219379 L18.95502473188706 74.11734244219379z" stroke="none"/><path fill="#969696" fill-opacity="1.0" d="M18.95502473188706 79.4054756353908 L18.95502473188706 81.2202090579018 L65.85285559293666 81.2202090579018 L65.85285559293666 79.4054756353908 L18.955023148692103 79.4054756353908 L18.95502473188706 79.4054756353908z" stroke="none"/><path fill="url(#id40)" d="M77.4884966797996 25.66758952799542 L55.75778423041335 25.66758952799542 Q54.09768396690027 25.66758952799542 54.09768396690027 23.852856105484435 L54.09768396690027 0.0 L77.4884966797996 25.66758952799542 L77.4884966797996 25.66758952799542z" stroke-width="1.0" stroke-linejoin="round" stroke="#000000"/></g><g transform="translate(489.51149999999984 39.0)"><clipPath id="id41"><path d="M0 0 L128.48850000000016 0 L128.48850000000016 21.0 L0 21.0z"/></clipPath><text font-size="12" clip-path="url(#id41)" text-decoration="none" fill="#dc0800" font-family="Arial,Arial" font-style="normal" font-weight="normal"><tspan x="2.0" xml:space="preserve" y="13.0" textLength="114.0">u2 - miss sarajevo.txt</tspan></text></g><g transform="translate(533.5 190.5)"><path fill="#ffffff" fill-opacity="1.0" d="M15.24425000000008 5.5 Q15.24425000000008 7.7780654600000005 13.011882030000061 9.388994999999998 Q10.779407350250052 11.0 7.62212500000004 11.0 Q4.4649646037500235 11.0 2.232482698225511 9.389077280000002 Q0.0 7.778155000000001 0.0 5.5 Q0.0 3.2218450000000005 2.232482393340512 1.610922786 Q4.4649646037500235 0.0 7.62212500000004 0.0 Q10.77946131489505 0.0 13.011882030000061 1.610922566 Q15.24425000000008 3.2218071599999996 15.24425000000008 5.5 L15.24425000000008 5.5z" stroke-width="1.0" stroke-linejoin="round" stroke="#000000"/><g transform="translate(2.1104139490652183 1.7514200973510745)"><clipPath id="id42"><path d="M0 0 L11.024641553478297 0 L11.024641553478297 7.446559906005859 L0 7.446559906005859z"/></clipPath><text font-size="12" clip-path="url(#id42)" text-decoration="none" fill="#000000" font-family="Arial,Arial" font-style="normal" font-weight="normal"/></g></g><g transform="translate(556.7442500000001 191.5)"><path fill="#ffffff" fill-opacity="1.0" d="M15.24425000000008 5.5 Q15.24425000000008 7.7780654600000005 13.011882030000061 9.388994999999998 Q10.779407350250052 11.0 7.62212500000004 11.0 Q4.4649646037500235 11.0 2.232482698225511 9.389077280000002 Q0.0 7.778155000000001 0.0 5.5 Q0.0 3.2218450000000005 2.232482393340512 1.610922786 Q4.4649646037500235 0.0 7.62212500000004 0.0 Q10.77946131489505 0.0 13.011882030000061 1.610922566 Q15.24425000000008 3.2218071599999996 15.24425000000008 5.5 L15.24425000000008 5.5z" stroke-width="1.0" stroke-linejoin="round" stroke="#000000"/><g transform="translate(2.1104139490652183 1.7514200973510745)"><clipPath id="id43"><path d="M0 0 L11.024641553478297 0 L11.024641553478297 7.446559906005859 L0 7.446559906005859z"/></clipPath><text font-size="12" clip-path="url(#id43)" text-decoration="none" fill="#000000" font-family="Arial,Arial" font-style="normal" font-weight="normal"/></g></g><g transform="translate(582.5 191.5)"><path fill="#ffffff" fill-opacity="1.0" d="M15.24425000000008 5.5 Q15.24425000000008 7.7780654600000005 13.011882030000061 9.388994999999998 Q10.779407350250052 11.0 7.62212500000004 11.0 Q4.4649646037500235 11.0 2.232482698225511 9.389077280000002 Q0.0 7.778155000000001 0.0 5.5 Q0.0 3.2218450000000005 2.232482393340512 1.610922786 Q4.4649646037500235 0.0 7.62212500000004 0.0 Q10.77946131489505 0.0 13.011882030000061 1.610922566 Q15.24425000000008 3.2218071599999996 15.24425000000008 5.5 L15.24425000000008 5.5z" stroke-width="1.0" stroke-linejoin="round" stroke="#000000"/><g transform="translate(2.1104139490652183 1.7514200973510745)"><clipPath id="id44"><path d="M0 0 L11.024641553478297 0 L11.024641553478297 7.446559906005859 L0 7.446559906005859z"/></clipPath><text font-size="12" clip-path="url(#id44)" text-decoration="none" fill="#000000" font-family="Arial,Arial" font-style="normal" font-weight="normal"/></g></g><path fill="none" d="M428.2557499999999 656.5 L533.5 656.5" stroke-dasharray="3.0 3.0" stroke-width="1.0" stroke-linejoin="round" stroke="#000000"/><path fill="none" d="M428.2557499999999 644.0 L533.5 644.0" stroke-dasharray="3.0 3.0" stroke-width="1.0" stroke-linejoin="round" stroke="#000000"/><path fill="none" marker-end="url(#id45)" d="M417.01149999999984 617.0 L335.2557499999999 637.75" stroke-width="1.0" stroke-linejoin="round" stroke="#000000"/><path fill="none" marker-end="url(#id46)" d="M488.01149999999984 617.0 L533.5 637.75" stroke-width="1.0" stroke-linejoin="round" stroke="#000000"/><g transform="translate(418.51149999999984 671.0)"><clipPath id="id47"><path d="M0 0 L91.48850000000016 0 L91.48850000000016 68.0 L0 68.0z"/></clipPath><text font-size="12" clip-path="url(#id47)" text-decoration="none" fill="#dc0800" font-family="Arial,Arial" font-style="normal" font-weight="normal"><tspan x="29.0" xml:space="preserve" y="13.0" textLength="36.0">Índice </tspan><tspan x="4.0" xml:space="preserve" y="27.0" textLength="85.0">secundario por </tspan><tspan x="31.0" xml:space="preserve" y="41.0" textLength="28.0">autor</tspan><tspan x="18.0" xml:space="preserve" y="55.0" textLength="54.0">(árbol B+)</tspan></text></g><path marker-start="url(#id48)" fill="none" d="M274.5740740740741 346.0 Q181.85649855818983 544.4947876994765 223.5 619.0 Q232.20773315429688 634.5791625976562 249.9357452392578 647.9071044921875 Q266.7678527832031 660.5615234375 288.4829406738281 668.8330078125 Q310.1138610839844 677.0724487304688 331.6636657714844 679.0924072265625 Q354.2171936035156 681.2063598632812 372.0 676.0 Q377.02342009322547 674.5292551872986 381.7557499999999 662.75" stroke-width="1.0" stroke-linejoin="round" stroke="#8856a1"/><path fill="none" marker-end="url(#id49)" d="M564.3564356435644 637.75 Q558.0489669076072 629.9087341232856 553.5 625.0 Q461.31469770711465 525.5239764937065 312.58032128514054 386.0" stroke-width="1.0" stroke-linejoin="round" stroke="#8856a1"/><g transform="translate(297.0 397.0)"><clipPath id="id50"><path d="M0 0 L23.0 0 L23.0 16.0 L0 16.0z"/></clipPath><text font-size="12" clip-path="url(#id50)" text-decoration="none" fill="#000000" font-family="Arial,Arial" font-style="normal" font-weight="normal"><tspan x="2.0" xml:space="preserve" y="13.0" textLength="7.0">3</tspan></text></g><path fill="none" marker-end="url(#id51)" d="M616.5 662.75 Q521.2506182394308 601.3620439261642 463.5 553.5 Q401.11380777556985 501.79612628124073 316.85016835016836 413.0" stroke-width="1.0" stroke-linejoin="round" stroke="#8856a1"/><g transform="translate(719.0 534.0)"><g transform="translate(0.0 0.0)"><path fill="#ffffff" fill-opacity="1.0" d="M0.0 0.0 L63.0 0.0 L63.0 22.650887573964496 L0.0 22.650887573964496 L0.0 0.0z" stroke-width="1.0" stroke-linejoin="round" stroke="#000000"/><g transform="translate(0.0 0.0)"><clipPath id="id52"><path d="M0 0 L63.0 0 L63.0 22.650887573964496 L0 22.650887573964496z"/></clipPath><text font-size="12" clip-path="url(#id52)" text-decoration="none" fill="#000000" font-family="Arial,Arial" font-style="normal" font-weight="normal"><tspan x="23.0" xml:space="preserve" y="15.325443786982248" textLength="17.0">the</tspan></text></g></g><g transform="translate(63.0 0.0)"><path fill="#ffffff" fill-opacity="1.0" d="M0.0 0.0 L63.0 0.0 L63.0 22.650887573964496 L0.0 22.650887573964496 L0.0 0.0z" stroke-width="1.0" stroke-linejoin="round" stroke="#000000"/><g transform="translate(0.0 0.0)"><clipPath id="id53"><path d="M0 0 L63.0 0 L63.0 22.650887573964496 L0 22.650887573964496z"/></clipPath><text font-size="12" clip-path="url(#id53)" text-decoration="none" fill="#000000" font-family="Arial,Arial" font-style="normal" font-weight="normal"/></g></g><g transform="translate(0.0 22.650887573964496)"><path fill="#ffffff" fill-opacity="1.0" d="M0.0 0.0 L63.0 0.0 L63.0 23.337278106508876 L0.0 23.337278106508876 L0.0 0.0z" stroke-width="1.0" stroke-linejoin="round" stroke="#000000"/><g transform="translate(0.0 0.0)"><clipPath id="id54"><path d="M0 0 L63.0 0 L63.0 23.337278106508876 L0 23.337278106508876z"/></clipPath><text font-size="12" clip-path="url(#id54)" text-decoration="none" fill="#000000" font-family="Arial,Arial" font-style="normal" font-weight="normal"><tspan x="19.0" xml:space="preserve" y="15.668639053254438" textLength="24.0">year</tspan></text></g></g><g transform="translate(63.0 22.650887573964496)"><path fill="#ffffff" fill-opacity="1.0" d="M0.0 0.0 L63.0 0.0 L63.0 23.337278106508876 L0.0 23.337278106508876 L0.0 0.0z" stroke-width="1.0" stroke-linejoin="round" stroke="#000000"/><g transform="translate(0.0 0.0)"><clipPath id="id55"><path d="M0 0 L63.0 0 L63.0 23.337278106508876 L0 23.337278106508876z"/></clipPath><text font-size="12" clip-path="url(#id55)" text-decoration="none" fill="#000000" font-family="Arial,Arial" font-style="normal" font-weight="normal"/></g></g><g transform="translate(0.0 45.98816568047337)"><path fill="#ffffff" fill-opacity="1.0" d="M0.0 0.0 L63.0 0.0 L63.0 23.337278106508876 L0.0 23.337278106508876 L0.0 0.0z" stroke-width="1.0" stroke-linejoin="round" stroke="#000000"/><g transform="translate(0.0 0.0)"><clipPath id="id56"><path d="M0 0 L63.0 0 L63.0 23.337278106508876 L0 23.337278106508876z"/></clipPath><text font-size="12" clip-path="url(#id56)" text-decoration="none" fill="#000000" font-family="Arial,Arial" font-style="normal" font-weight="normal"/></g></g><g transform="translate(63.0 45.98816568047337)"><path fill="#ffffff" fill-opacity="1.0" d="M0.0 0.0 L63.0 0.0 L63.0 23.337278106508876 L0.0 23.337278106508876 L0.0 0.0z" stroke-width="1.0" stroke-linejoin="round" stroke="#000000"/><g transform="translate(0.0 0.0)"><clipPath id="id57"><path d="M0 0 L63.0 0 L63.0 23.337278106508876 L0 23.337278106508876z"/></clipPath><text font-size="12" clip-path="url(#id57)" text-decoration="none" fill="#000000" font-family="Arial,Arial" font-style="normal" font-weight="normal"/></g></g><g transform="translate(0.0 69.32544378698225)"><path fill="#ffffff" fill-opacity="1.0" d="M0.0 0.0 L63.0 0.0 L63.0 23.337278106508876 L0.0 23.337278106508876 L0.0 0.0z" stroke-width="1.0" stroke-linejoin="round" stroke="#000000"/><g transform="translate(0.0 0.0)"><clipPath id="id58"><path d="M0 0 L63.0 0 L63.0 23.337278106508876 L0 23.337278106508876z"/></clipPath><text font-size="12" clip-path="url(#id58)" text-decoration="none" fill="#000000" font-family="Arial,Arial" font-style="normal" font-weight="normal"/></g></g><g transform="translate(63.0 69.32544378698225)"><path fill="#ffffff" fill-opacity="1.0" d="M0.0 0.0 L63.0 0.0 L63.0 23.337278106508876 L0.0 23.337278106508876 L0.0 0.0z" stroke-width="1.0" stroke-linejoin="round" stroke="#000000"/><g transform="translate(0.0 0.0)"><clipPath id="id59"><path d="M0 0 L63.0 0 L63.0 23.337278106508876 L0 23.337278106508876z"/></clipPath><text font-size="12" clip-path="url(#id59)" text-decoration="none" fill="#000000" font-family="Arial,Arial" font-style="normal" font-weight="normal"/></g></g><g transform="translate(0.0 92.66272189349112)"><path fill="#ffffff" fill-opacity="1.0" d="M0.0 0.0 L63.0 0.0 L63.0 23.33727810650886 L0.0 23.33727810650886 L0.0 0.0z" stroke-width="1.0" stroke-linejoin="round" stroke="#000000"/><g transform="translate(0.0 0.0)"><clipPath id="id60"><path d="M0 0 L63.0 0 L63.0 23.33727810650886 L0 23.33727810650886z"/></clipPath><text font-size="12" clip-path="url(#id60)" text-decoration="none" fill="#000000" font-family="Arial,Arial" font-style="normal" font-weight="normal"/></g></g><g transform="translate(63.0 92.66272189349112)"><path fill="#ffffff" fill-opacity="1.0" d="M0.0 0.0 L63.0 0.0 L63.0 23.33727810650886 L0.0 23.33727810650886 L0.0 0.0z" stroke-width="1.0" stroke-linejoin="round" stroke="#000000"/><g transform="translate(0.0 0.0)"><clipPath id="id61"><path d="M0 0 L63.0 0 L63.0 23.33727810650886 L0 23.33727810650886z"/></clipPath><text font-size="12" clip-path="url(#id61)" text-decoration="none" fill="#000000" font-family="Arial,Arial" font-style="normal" font-weight="normal"/></g></g></g><g transform="translate(718.5 669.5)"><clipPath id="id62"><path d="M0 0 L127.0 0 L127.0 71.0 L0 71.0z"/></clipPath><text font-size="12" clip-path="url(#id62)" text-decoration="none" fill="#dc0800" font-family="Arial,Arial" font-style="normal" font-weight="normal"><tspan x="4.0" xml:space="preserve" y="13.0" textLength="121.0">Índice secundario por </tspan><tspan x="50.0" xml:space="preserve" y="27.0" textLength="27.0">frase</tspan><tspan x="6.0" xml:space="preserve" y="41.0" textLength="118.0">(índice booleano con </tspan><tspan x="32.0" xml:space="preserve" y="55.0" textLength="63.0">posiciones)</tspan></text></g></g></svg>